<svg id="Capa_1" enable-background="new 0 0 512 512" height="512" viewBox="0 0 512 512" width="512" xmlns="http://www.w3.org/2000/svg"><path d="m317.17 497h-122.34l30-79.61h62.34z" fill="#09607d"/><path d="m287.17 417.39 30 79.61h-61.17v-79.61z" fill="#07485e"/><path d="m512 121.49v221.92l-256 20-256-20v-221.92c0-24.29 19.76-44.05 44.05-44.05h423.9c24.29 0 44.05 19.76 44.05 44.05z" fill="#f3eee9"/><path d="m512 121.49v221.92l-256 20v-285.97h211.95c24.29 0 44.05 19.76 44.05 44.05z" fill="#e9dfda"/><path d="m438.02 35.25v338.16h-364.04v-338.16c0-19.44 15.81-35.25 35.24-35.25h293.56c19.43 0 35.24 15.81 35.24 35.25z" fill="#e9dfda"/><path d="m438.02 35.25v338.16h-182.02v-373.41h146.78c19.43 0 35.24 15.81 35.24 35.25z" fill="#ccd3e1"/><path d="m512 343.41v44.94c0 24.28-19.76 44.04-44.05 44.04h-423.9c-24.29 0-44.05-19.76-44.05-44.04v-44.94z" fill="#07485e"/><path d="m512 343.41v44.94c0 24.28-19.76 44.04-44.05 44.04h-211.95v-88.98z" fill="#03232e"/><path d="m283.79 387.06c0 8.29-6.71 15-15 15h-25.58c-8.29 0-15-6.71-15-15 0-8.28 6.71-15 15-15h25.58c8.29 0 15 6.72 15 15z" fill="#fff"/><path d="m347.17 497c0 8.28-6.72 15-15 15h-152.34c-8.28 0-15-6.72-15-15s6.72-15 15-15h152.34c8.28 0 15 6.72 15 15z" fill="#07485e"/><path d="m388.91 65.23v86.94c0 8.29-6.72 15-15 15h-234.82c-8.28 0-15-6.71-15-15v-86.94c0-8.29 6.72-15 15-15h234.82c8.28 0 15 6.71 15 15z" fill="#ffae3b"/><path d="m139.091 222.52h86.909c8.284 0 15-6.716 15-15s-6.716-15-15-15h-86.909c-8.284 0-15 6.716-15 15s6.716 15 15 15z" fill="#07485e"/><path d="m373.909 192.52h-87.909c-8.284 0-15 6.716-15 15s6.716 15 15 15h87.909c8.284 0 15-6.716 15-15s-6.716-15-15-15z" fill="#002438"/><path d="m388.91 257.51c0 8.29-6.72 15-15 15h-234.82c-8.28 0-15-6.71-15-15 0-8.28 6.72-15 15-15h234.82c8.28 0 15 6.72 15 15z" fill="#07485e"/><path d="m347.17 497c0 8.28-6.72 15-15 15h-76.17v-30h76.17c8.28 0 15 6.72 15 15z" fill="#002438"/><path d="m373.91 272.51h-117.91v-30h117.91c8.28 0 15 6.72 15 15 0 8.29-6.72 15-15 15z" fill="#002438"/><path d="m373.91 167.17h-117.91v-116.94h117.91c8.28 0 15 6.71 15 15v86.94c0 8.29-6.72 15-15 15z" fill="#ff7127"/><path d="m283.79 387.06c0 8.29-6.71 15-15 15h-12.79v-30h12.79c8.29 0 15 6.72 15 15z" fill="#f3eee9"/></svg>